<svg width="367.219635" height="530.249756" viewBox="0 0 367.22 530.25" fill="none" xmlns="http://www.w3.org/2000/svg" xmlns:xlink="http://www.w3.org/1999/xlink">
	<desc>
			Created with Pixso.
	</desc>
	<defs/>
	<path id="Vector 113" d="M123.22 404.09L134.78 440.27C135.53 442.63 136.11 445.04 136.51 447.48L139.07 463.24C139.49 465.89 139.71 468.56 139.71 471.25L139.71 486.05C139.71 492.41 138.5 498.72 136.13 504.63L132.12 514.66C128.37 522.16 134.57 530.78 142.87 529.62L163.75 526.68L184.64 521.62L216.91 510.23L237.79 502.01L263.37 489.49C266.14 488.14 268.77 486.54 271.24 484.7L294.74 467.22L316.4 449.26C319.24 446.9 321.82 444.23 324.07 441.31L337.76 423.57L351 400.81C352.72 397.86 354.13 394.73 355.21 391.49L362.94 368.3C364.29 364.25 365.12 360.06 365.4 355.81L366.6 337.75C366.78 335.08 366.75 332.41 366.5 329.75L363.74 300.34C363.3 295.64 362.2 291.03 360.46 286.64L353.58 269.22L342.5 246.55C340.62 242.7 338.25 239.11 335.45 235.87L323.84 222.41L304.23 199.64L285.88 184.45L301.06 220.51L312.45 252.14L319.41 275.14C320.25 277.94 320.85 280.8 321.2 283.7L323.24 300.85C323.64 304.21 323.7 307.61 323.41 310.99L321.22 336.89C320.86 341.1 319.97 345.25 318.57 349.24L313.89 362.56C312.93 365.27 311.75 367.9 310.34 370.41L296.93 394.34C295.47 396.95 293.78 399.43 291.88 401.73L273.85 423.57L272.28 425.37C267.85 430.42 259.78 425.3 262.47 419.14L271.96 392.57L277.99 366.92C279.03 362.54 279.46 358.03 279.29 353.52L277.82 315.91C277.71 313.04 277.35 310.19 276.75 307.38L271.96 285.03L269.23 255C268.94 251.83 268.95 248.65 269.27 245.49L271.96 218.61L278.92 188.25L256.71 225.06C255.49 227.08 254.41 229.2 253.49 231.38L239.05 265.42L228.56 285.24C227.97 286.36 227.19 287.37 226.25 288.22L223.16 291.02C221.68 292.37 219.52 292.67 217.73 291.77C216.41 291.11 215.46 289.89 215.15 288.45L214.09 283.47C213.86 282.41 213.74 281.32 213.74 280.24L213.74 275.97C213.74 271.49 214.35 267.03 215.53 262.71L220.7 243.92L230.83 215.45L233.63 203.18C235.12 196.67 235.29 189.92 234.13 183.34L233.08 177.38C232.42 173.67 231.35 170.05 229.89 166.59L225.13 155.36L213.74 131.95L208.69 116.41C206.6 109.97 205.83 103.17 206.45 96.42L207.01 90.27C207.28 87.28 207.82 84.31 208.63 81.42L212.45 67.66C213.31 64.56 214.47 61.55 215.91 58.68L225.13 40.23L242.22 21.88L264.36 4.17L205.52 25.04L169.88 54.29C165.41 57.96 161.61 62.38 158.65 67.34L150.39 81.2C147.1 86.73 144.9 92.83 143.92 99.19L141.4 115.62C140.7 120.16 140.63 124.77 141.19 129.33L144.54 156.59C145.12 161.23 146.33 165.76 148.16 170.06L156.05 188.58C157.39 191.72 158.4 195 159.07 198.35L161.02 208.11C162.37 214.84 161.02 221.83 157.26 227.58L156.95 228.05C153.98 232.59 149.58 236.02 144.45 237.8C138.94 239.71 132.93 239.59 127.5 237.46L127.04 237.28C123.31 235.82 119.96 233.51 117.27 230.53L101.11 212.62C99.01 210.3 97.13 207.78 95.5 205.1L82.91 184.39C79.88 179.41 77.75 173.94 76.6 168.22L72.34 146.93C71.7 143.7 71.37 140.41 71.37 137.12L71.37 97.68C71.37 92.31 72.24 86.97 73.94 81.87L86.56 44.02L104.91 0.37L71.37 29.47L32.41 79.71C29.3 83.73 26.81 88.2 25.04 92.96L8.75 136.89C7.48 140.33 6.58 143.91 6.09 147.55L0.95 185.33C0.24 190.62 0.37 195.98 1.34 201.22L10.35 249.55C11.37 255.03 13.3 260.31 16.06 265.15L38.71 304.89C41.48 309.75 45.05 314.11 49.26 317.79L92.25 355.34C96.03 358.63 99.29 362.48 101.92 366.75L118.15 393.06C120.28 396.52 121.99 400.22 123.22 404.09Z" fill="#000000" fill-opacity="1.000000" fill-rule="nonzero"/>
	<path id="Vector 113" d="M123.22 404.09C121.99 400.22 120.28 396.52 118.15 393.06L101.92 366.75C99.29 362.48 96.03 358.63 92.25 355.34L49.26 317.79C45.05 314.11 41.48 309.75 38.71 304.89L16.06 265.15C13.3 260.31 11.37 255.03 10.35 249.55L1.34 201.22C0.37 195.98 0.24 190.62 0.95 185.33L6.09 147.55C6.58 143.91 7.48 140.33 8.75 136.89L25.04 92.96C26.81 88.2 29.3 83.73 32.41 79.71L71.37 29.47L104.91 0.37L86.56 44.02L73.94 81.87C72.24 86.97 71.37 92.31 71.37 97.68L71.37 137.12C71.37 140.41 71.7 143.7 72.34 146.93L76.6 168.22C77.75 173.94 79.88 179.41 82.91 184.39L95.5 205.1C97.13 207.78 99.01 210.3 101.11 212.62L116.94 230.17C119.85 233.38 123.46 235.88 127.5 237.46C132.93 239.59 138.94 239.71 144.45 237.8C149.58 236.02 153.98 232.59 156.95 228.05L157.26 227.58C161.02 221.83 162.37 214.84 161.02 208.11L159.07 198.35C158.4 195 157.39 191.72 156.05 188.58L148.16 170.06C146.33 165.76 145.12 161.23 144.54 156.59L141.19 129.33C140.63 124.77 140.7 120.16 141.4 115.62L143.92 99.19C144.9 92.83 147.1 86.73 150.39 81.2L158.65 67.34C161.61 62.38 165.41 57.96 169.88 54.29L205.52 25.04L264.36 4.17L242.22 21.88L225.13 40.23L215.91 58.68C214.47 61.55 213.31 64.56 212.45 67.66L208.63 81.42C207.82 84.31 207.28 87.28 207.01 90.27L206.45 96.42C205.83 103.17 206.6 109.97 208.69 116.41L213.74 131.95L225.13 155.36L229.89 166.59C231.35 170.05 232.42 173.67 233.08 177.38L234.13 183.34C235.29 189.92 235.12 196.67 233.63 203.18L230.83 215.45L220.7 243.92L215.53 262.71C214.35 267.03 213.74 271.49 213.74 275.97L213.74 276.57C213.74 280.1 214.12 283.61 214.85 287.05L215.15 288.45C215.46 289.89 216.41 291.11 217.73 291.77C219.52 292.67 221.68 292.37 223.16 291.02L226.25 288.22C227.19 287.37 227.97 286.36 228.56 285.24L239.05 265.42L253.49 231.38C254.41 229.2 255.49 227.08 256.71 225.06L278.92 188.25L271.96 218.61L269.27 245.49C268.95 248.65 268.94 251.83 269.23 255L271.96 285.03L276.75 307.38C277.35 310.19 277.71 313.04 277.82 315.92L279.29 353.52C279.46 358.03 279.03 362.54 277.99 366.92L271.96 392.57L262.47 419.14C259.78 425.3 267.85 430.42 272.28 425.37L273.85 423.57L291.88 401.73C293.78 399.43 295.47 396.95 296.93 394.34L310.34 370.41C311.75 367.9 312.93 365.27 313.89 362.56L318.57 349.24C319.97 345.25 320.86 341.1 321.22 336.89L323.41 310.99C323.7 307.61 323.64 304.21 323.24 300.85L321.2 283.7C320.85 280.8 320.25 277.94 319.41 275.14L312.45 252.14L301.06 220.51L285.88 184.45L304.23 199.64L323.84 222.41L335.45 235.87C338.25 239.11 340.62 242.7 342.5 246.55L353.58 269.22L360.46 286.64C362.2 291.03 363.3 295.64 363.74 300.34L366.5 329.75C366.75 332.41 366.78 335.08 366.6 337.75L365.4 355.81C365.12 360.06 364.29 364.25 362.94 368.3L355.21 391.49C354.13 394.73 352.72 397.86 351 400.81L337.76 423.57L324.07 441.31C321.82 444.23 319.24 446.9 316.4 449.26L294.74 467.22L271.24 484.7C268.77 486.54 266.14 488.14 263.37 489.49L237.79 502.01L216.91 510.23L184.64 521.62L163.75 526.68L142.87 529.62C134.57 530.78 128.37 522.16 132.12 514.66L136.13 504.63C138.5 498.72 139.71 492.41 139.71 486.05L139.71 471.25C139.71 468.56 139.49 465.89 139.07 463.24L136.51 447.48C136.11 445.04 135.53 442.63 134.78 440.27L123.22 404.09Z" stroke="#000000" stroke-opacity="1.000000" stroke-width="1.000000"/>
</svg>
