<svg width="1280" height="1280" viewBox="0 0 1280 1280" fill="none" xmlns="http://www.w3.org/2000/svg">
<g filter="url(#filter0_d_0_1)">
<ellipse cx="632.5" cy="153.5" rx="692.5" ry="153.5" fill="#AEA296"/>
<path d="M1323.5 153.5C1323.5 163.607 1318.89 173.607 1309.83 183.418C1300.76 193.238 1287.32 202.782 1269.88 211.921C1235.01 230.196 1184.45 246.7 1121.85 260.576C996.664 288.325 823.653 305.5 632.5 305.5C441.347 305.5 268.336 288.325 143.153 260.576C80.5496 246.7 29.9893 230.196 -4.88364 211.921C-22.3217 202.782 -35.7636 193.238 -44.8287 183.418C-53.8865 173.607 -58.5 163.607 -58.5 153.5C-58.5 143.393 -53.8865 133.393 -44.8287 123.582C-35.7636 113.762 -22.3217 104.218 -4.88364 95.0795C29.9893 76.8038 80.5496 60.3003 143.153 46.4236C268.336 18.6755 441.347 1.5 632.5 1.5C823.653 1.5 996.664 18.6755 1121.85 46.4236C1184.45 60.3003 1235.01 76.8038 1269.88 95.0795C1287.32 104.218 1300.76 113.762 1309.83 123.582C1318.89 133.393 1323.5 143.393 1323.5 153.5Z" stroke="black" stroke-width="3"/>
</g>
<g filter="url(#filter1_d_0_1)">
<ellipse cx="633" cy="153.5" rx="585" ry="94.5" fill="#8B8885"/>
<path d="M1216.5 153.5C1216.5 159.349 1212.83 165.332 1205.19 171.368C1197.56 177.384 1186.23 183.253 1171.49 188.882C1142.03 200.134 1099.31 210.296 1046.42 218.841C940.655 235.926 794.489 246.5 633 246.5C471.511 246.5 325.345 235.926 219.582 218.841C166.688 210.296 123.969 200.134 94.5074 188.882C79.7685 183.253 68.4357 177.384 60.8145 171.368C53.169 165.332 49.5 159.349 49.5 153.5C49.5 147.651 53.169 141.668 60.8145 135.632C68.4357 129.616 79.7685 123.747 94.5074 118.118C123.969 106.866 166.688 96.7036 219.582 88.1592C325.345 71.0744 471.511 60.5 633 60.5C794.489 60.5 940.655 71.0744 1046.42 88.1592C1099.31 96.7036 1142.03 106.866 1171.49 118.118C1186.23 123.747 1197.56 129.616 1205.19 135.632C1212.83 141.668 1216.5 147.651 1216.5 153.5Z" stroke="black" stroke-width="3"/>
</g>
<g filter="url(#filter2_d_0_1)">
<ellipse cx="633" cy="154" rx="382" ry="62" fill="#D9D9D9"/>
</g>
<g filter="url(#filter3_d_0_1)">
<ellipse cx="640.5" cy="646.5" rx="692.5" ry="153.5" fill="#AEA296"/>
<path d="M1331.5 646.5C1331.5 656.607 1326.89 666.607 1317.83 676.418C1308.76 686.238 1295.32 695.782 1277.88 704.921C1243.01 723.196 1192.45 739.7 1129.85 753.576C1004.66 781.325 831.653 798.5 640.5 798.5C449.347 798.5 276.336 781.325 151.153 753.576C88.5496 739.7 37.9893 723.196 3.11636 704.921C-14.3217 695.782 -27.7636 686.238 -36.8287 676.418C-45.8865 666.607 -50.5 656.607 -50.5 646.5C-50.5 636.393 -45.8865 626.393 -36.8287 616.582C-27.7636 606.762 -14.3217 597.218 3.11636 588.079C37.9893 569.804 88.5496 553.3 151.153 539.424C276.336 511.675 449.347 494.5 640.5 494.5C831.653 494.5 1004.66 511.675 1129.85 539.424C1192.45 553.3 1243.01 569.804 1277.88 588.079C1295.32 597.218 1308.76 606.762 1317.83 616.582C1326.89 626.393 1331.5 636.393 1331.5 646.5Z" stroke="black" stroke-width="3"/>
</g>
<g filter="url(#filter4_d_0_1)">
<ellipse cx="641" cy="646.5" rx="585" ry="94.5" fill="#8B8885"/>
<path d="M1224.5 646.5C1224.5 652.349 1220.83 658.332 1213.19 664.368C1205.56 670.384 1194.23 676.253 1179.49 681.882C1150.03 693.134 1107.31 703.296 1054.42 711.841C948.655 728.926 802.489 739.5 641 739.5C479.511 739.5 333.345 728.926 227.582 711.841C174.688 703.296 131.969 693.134 102.507 681.882C87.7685 676.253 76.4357 670.384 68.8145 664.368C61.169 658.332 57.5 652.349 57.5 646.5C57.5 640.651 61.169 634.668 68.8145 628.632C76.4357 622.616 87.7685 616.747 102.507 611.118C131.969 599.866 174.688 589.704 227.582 581.159C333.345 564.074 479.511 553.5 641 553.5C802.489 553.5 948.655 564.074 1054.42 581.159C1107.31 589.704 1150.03 599.866 1179.49 611.118C1194.23 616.747 1205.56 622.616 1213.19 628.632C1220.83 634.668 1224.5 640.651 1224.5 646.5Z" stroke="black" stroke-width="3"/>
</g>
<g filter="url(#filter5_d_0_1)">
<ellipse cx="641" cy="647" rx="382" ry="62" fill="#D9D9D9"/>
</g>
<g filter="url(#filter6_d_0_1)">
<ellipse cx="646.5" cy="1118.5" rx="692.5" ry="153.5" fill="#AEA296"/>
<path d="M1337.5 1118.5C1337.5 1128.61 1332.89 1138.61 1323.83 1148.42C1314.76 1158.24 1301.32 1167.78 1283.88 1176.92C1249.01 1195.2 1198.45 1211.7 1135.85 1225.58C1010.66 1253.32 837.653 1270.5 646.5 1270.5C455.347 1270.5 282.336 1253.32 157.153 1225.58C94.5496 1211.7 43.9893 1195.2 9.11636 1176.92C-8.32169 1167.78 -21.7636 1158.24 -30.8287 1148.42C-39.8865 1138.61 -44.5 1128.61 -44.5 1118.5C-44.5 1108.39 -39.8865 1098.39 -30.8287 1088.58C-21.7636 1078.76 -8.32169 1069.22 9.11636 1060.08C43.9893 1041.8 94.5496 1025.3 157.153 1011.42C282.336 983.675 455.347 966.5 646.5 966.5C837.653 966.5 1010.66 983.675 1135.85 1011.42C1198.45 1025.3 1249.01 1041.8 1283.88 1060.08C1301.32 1069.22 1314.76 1078.76 1323.83 1088.58C1332.89 1098.39 1337.5 1108.39 1337.5 1118.5Z" stroke="black" stroke-width="3"/>
</g>
<g filter="url(#filter7_d_0_1)">
<ellipse cx="647" cy="1118.5" rx="585" ry="94.5" fill="#8B8885"/>
<path d="M1230.5 1118.5C1230.5 1124.35 1226.83 1130.33 1219.19 1136.37C1211.56 1142.38 1200.23 1148.25 1185.49 1153.88C1156.03 1165.13 1113.31 1175.3 1060.42 1183.84C954.655 1200.93 808.489 1211.5 647 1211.5C485.511 1211.5 339.345 1200.93 233.582 1183.84C180.688 1175.3 137.969 1165.13 108.507 1153.88C93.7685 1148.25 82.4357 1142.38 74.8145 1136.37C67.169 1130.33 63.5 1124.35 63.5 1118.5C63.5 1112.65 67.169 1106.67 74.8145 1100.63C82.4357 1094.62 93.7685 1088.75 108.507 1083.12C137.969 1071.87 180.688 1061.7 233.582 1053.16C339.345 1036.07 485.511 1025.5 647 1025.5C808.489 1025.5 954.655 1036.07 1060.42 1053.16C1113.31 1061.7 1156.03 1071.87 1185.49 1083.12C1200.23 1088.75 1211.56 1094.62 1219.19 1100.63C1226.83 1106.67 1230.5 1112.65 1230.5 1118.5Z" stroke="black" stroke-width="3"/>
</g>
<g filter="url(#filter8_d_0_1)">
<ellipse cx="647" cy="1119" rx="382" ry="62" fill="#D9D9D9"/>
</g>
<path d="M731.5 646.5C731.5 648.825 729.787 651.393 725.811 654.004C721.896 656.575 716.132 658.949 708.874 660.965C694.38 664.991 674.272 667.5 652 667.5C629.728 667.5 609.62 664.991 595.126 660.965C587.868 658.949 582.104 656.575 578.189 654.004C574.213 651.393 572.5 648.825 572.5 646.5C572.5 644.175 574.213 641.607 578.189 638.996C582.104 636.425 587.868 634.051 595.126 632.035C609.62 628.009 629.728 625.5 652 625.5C674.272 625.5 694.38 628.009 708.874 632.035C716.132 634.051 721.896 636.425 725.811 638.996C729.787 641.607 731.5 644.175 731.5 646.5Z" fill="black" stroke="black" stroke-width="3"/>
<path d="M735.5 1118.5C735.5 1120.83 733.787 1123.39 729.811 1126C725.896 1128.58 720.132 1130.95 712.874 1132.96C698.38 1136.99 678.272 1139.5 656 1139.5C633.728 1139.5 613.62 1136.99 599.126 1132.96C591.868 1130.95 586.104 1128.58 582.189 1126C578.213 1123.39 576.5 1120.83 576.5 1118.5C576.5 1116.17 578.213 1113.61 582.189 1111C586.104 1108.42 591.868 1106.05 599.126 1104.04C613.62 1100.01 633.728 1097.5 656 1097.5C678.272 1097.5 698.38 1100.01 712.874 1104.04C720.132 1106.05 725.896 1108.42 729.811 1111C733.787 1113.61 735.5 1116.17 735.5 1118.5Z" fill="black" stroke="black" stroke-width="3"/>
<path d="M720.5 153.5C720.5 155.825 718.787 158.393 714.811 161.004C710.896 163.575 705.132 165.949 697.874 167.965C683.38 171.991 663.272 174.5 641 174.5C618.728 174.5 598.62 171.991 584.126 167.965C576.868 165.949 571.104 163.575 567.189 161.004C563.213 158.393 561.5 155.825 561.5 153.5C561.5 151.175 563.213 148.607 567.189 145.996C571.104 143.425 576.868 141.051 584.126 139.035C598.62 135.009 618.728 132.5 641 132.5C663.272 132.5 683.38 135.009 697.874 139.035C705.132 141.051 710.896 143.425 714.811 145.996C718.787 148.607 720.5 151.175 720.5 153.5Z" fill="black" stroke="black" stroke-width="3"/>
<path d="M1224.5 614.5C1224.5 619.902 1220.44 625.128 1213.13 629.091C1205.88 633.022 1195.76 635.5 1184.5 635.5C1173.24 635.5 1163.12 633.022 1155.87 629.091C1148.56 625.128 1144.5 619.902 1144.5 614.5C1144.5 609.098 1148.56 603.872 1155.87 599.909C1163.12 595.978 1173.24 593.5 1184.5 593.5C1195.76 593.5 1205.88 595.978 1213.13 599.909C1220.44 603.872 1224.5 609.098 1224.5 614.5Z" fill="black" stroke="black" stroke-width="3"/>
<path d="M239.5 1056.5C239.5 1061.9 235.439 1067.13 228.13 1071.09C220.879 1075.02 210.76 1077.5 199.5 1077.5C188.24 1077.5 178.121 1075.02 170.87 1071.09C163.561 1067.13 159.5 1061.9 159.5 1056.5C159.5 1051.1 163.561 1045.87 170.87 1041.91C178.121 1037.98 188.24 1035.5 199.5 1035.5C210.76 1035.5 220.879 1037.98 228.13 1041.91C235.439 1045.87 239.5 1051.1 239.5 1056.5Z" fill="black" stroke="black" stroke-width="3"/>
<path d="M891.5 98.5C891.5 103.902 887.439 109.128 880.13 113.091C872.879 117.022 862.76 119.5 851.5 119.5C840.24 119.5 830.121 117.022 822.87 113.091C815.561 109.128 811.5 103.902 811.5 98.5C811.5 93.0977 815.561 87.8717 822.87 83.9088C830.121 79.9776 840.24 77.5 851.5 77.5C862.76 77.5 872.879 79.9776 880.13 83.9088C887.439 87.8717 891.5 93.0977 891.5 98.5Z" fill="black" stroke="black" stroke-width="3"/>
<path d="M322.5 130.5C322.5 135.902 318.439 141.128 311.13 145.091C303.879 149.022 293.76 151.5 282.5 151.5C271.24 151.5 261.121 149.022 253.87 145.091C246.561 141.128 242.5 135.902 242.5 130.5C242.5 125.098 246.561 119.872 253.87 115.909C261.121 111.978 271.24 109.5 282.5 109.5C293.76 109.5 303.879 111.978 311.13 115.909C318.439 119.872 322.5 125.098 322.5 130.5Z" fill="black" stroke="black" stroke-width="3"/>
<defs>
<filter id="filter0_d_0_1" x="-64" y="0" width="1393" height="315" filterUnits="userSpaceOnUse" color-interpolation-filters="sRGB">
<feFlood flood-opacity="0" result="BackgroundImageFix"/>
<feColorMatrix in="SourceAlpha" type="matrix" values="0 0 0 0 0 0 0 0 0 0 0 0 0 0 0 0 0 0 127 0" result="hardAlpha"/>
<feOffset dy="4"/>
<feGaussianBlur stdDeviation="2"/>
<feComposite in2="hardAlpha" operator="out"/>
<feColorMatrix type="matrix" values="0 0 0 0 0 0 0 0 0 0 0 0 0 0 0 0 0 0 0.25 0"/>
<feBlend mode="normal" in2="BackgroundImageFix" result="effect1_dropShadow_0_1"/>
<feBlend mode="normal" in="SourceGraphic" in2="effect1_dropShadow_0_1" result="shape"/>
</filter>
<filter id="filter1_d_0_1" x="44" y="59" width="1178" height="197" filterUnits="userSpaceOnUse" color-interpolation-filters="sRGB">
<feFlood flood-opacity="0" result="BackgroundImageFix"/>
<feColorMatrix in="SourceAlpha" type="matrix" values="0 0 0 0 0 0 0 0 0 0 0 0 0 0 0 0 0 0 127 0" result="hardAlpha"/>
<feOffset dy="4"/>
<feGaussianBlur stdDeviation="2"/>
<feComposite in2="hardAlpha" operator="out"/>
<feColorMatrix type="matrix" values="0 0 0 0 0 0 0 0 0 0 0 0 0 0 0 0 0 0 0.25 0"/>
<feBlend mode="normal" in2="BackgroundImageFix" result="effect1_dropShadow_0_1"/>
<feBlend mode="normal" in="SourceGraphic" in2="effect1_dropShadow_0_1" result="shape"/>
</filter>
<filter id="filter2_d_0_1" x="247" y="92" width="772" height="132" filterUnits="userSpaceOnUse" color-interpolation-filters="sRGB">
<feFlood flood-opacity="0" result="BackgroundImageFix"/>
<feColorMatrix in="SourceAlpha" type="matrix" values="0 0 0 0 0 0 0 0 0 0 0 0 0 0 0 0 0 0 127 0" result="hardAlpha"/>
<feOffset dy="4"/>
<feGaussianBlur stdDeviation="2"/>
<feComposite in2="hardAlpha" operator="out"/>
<feColorMatrix type="matrix" values="0 0 0 0 0 0 0 0 0 0 0 0 0 0 0 0 0 0 0.25 0"/>
<feBlend mode="normal" in2="BackgroundImageFix" result="effect1_dropShadow_0_1"/>
<feBlend mode="normal" in="SourceGraphic" in2="effect1_dropShadow_0_1" result="shape"/>
</filter>
<filter id="filter3_d_0_1" x="-56" y="493" width="1393" height="315" filterUnits="userSpaceOnUse" color-interpolation-filters="sRGB">
<feFlood flood-opacity="0" result="BackgroundImageFix"/>
<feColorMatrix in="SourceAlpha" type="matrix" values="0 0 0 0 0 0 0 0 0 0 0 0 0 0 0 0 0 0 127 0" result="hardAlpha"/>
<feOffset dy="4"/>
<feGaussianBlur stdDeviation="2"/>
<feComposite in2="hardAlpha" operator="out"/>
<feColorMatrix type="matrix" values="0 0 0 0 0 0 0 0 0 0 0 0 0 0 0 0 0 0 0.25 0"/>
<feBlend mode="normal" in2="BackgroundImageFix" result="effect1_dropShadow_0_1"/>
<feBlend mode="normal" in="SourceGraphic" in2="effect1_dropShadow_0_1" result="shape"/>
</filter>
<filter id="filter4_d_0_1" x="52" y="552" width="1178" height="197" filterUnits="userSpaceOnUse" color-interpolation-filters="sRGB">
<feFlood flood-opacity="0" result="BackgroundImageFix"/>
<feColorMatrix in="SourceAlpha" type="matrix" values="0 0 0 0 0 0 0 0 0 0 0 0 0 0 0 0 0 0 127 0" result="hardAlpha"/>
<feOffset dy="4"/>
<feGaussianBlur stdDeviation="2"/>
<feComposite in2="hardAlpha" operator="out"/>
<feColorMatrix type="matrix" values="0 0 0 0 0 0 0 0 0 0 0 0 0 0 0 0 0 0 0.25 0"/>
<feBlend mode="normal" in2="BackgroundImageFix" result="effect1_dropShadow_0_1"/>
<feBlend mode="normal" in="SourceGraphic" in2="effect1_dropShadow_0_1" result="shape"/>
</filter>
<filter id="filter5_d_0_1" x="255" y="585" width="772" height="132" filterUnits="userSpaceOnUse" color-interpolation-filters="sRGB">
<feFlood flood-opacity="0" result="BackgroundImageFix"/>
<feColorMatrix in="SourceAlpha" type="matrix" values="0 0 0 0 0 0 0 0 0 0 0 0 0 0 0 0 0 0 127 0" result="hardAlpha"/>
<feOffset dy="4"/>
<feGaussianBlur stdDeviation="2"/>
<feComposite in2="hardAlpha" operator="out"/>
<feColorMatrix type="matrix" values="0 0 0 0 0 0 0 0 0 0 0 0 0 0 0 0 0 0 0.25 0"/>
<feBlend mode="normal" in2="BackgroundImageFix" result="effect1_dropShadow_0_1"/>
<feBlend mode="normal" in="SourceGraphic" in2="effect1_dropShadow_0_1" result="shape"/>
</filter>
<filter id="filter6_d_0_1" x="-50" y="965" width="1393" height="315" filterUnits="userSpaceOnUse" color-interpolation-filters="sRGB">
<feFlood flood-opacity="0" result="BackgroundImageFix"/>
<feColorMatrix in="SourceAlpha" type="matrix" values="0 0 0 0 0 0 0 0 0 0 0 0 0 0 0 0 0 0 127 0" result="hardAlpha"/>
<feOffset dy="4"/>
<feGaussianBlur stdDeviation="2"/>
<feComposite in2="hardAlpha" operator="out"/>
<feColorMatrix type="matrix" values="0 0 0 0 0 0 0 0 0 0 0 0 0 0 0 0 0 0 0.25 0"/>
<feBlend mode="normal" in2="BackgroundImageFix" result="effect1_dropShadow_0_1"/>
<feBlend mode="normal" in="SourceGraphic" in2="effect1_dropShadow_0_1" result="shape"/>
</filter>
<filter id="filter7_d_0_1" x="58" y="1024" width="1178" height="197" filterUnits="userSpaceOnUse" color-interpolation-filters="sRGB">
<feFlood flood-opacity="0" result="BackgroundImageFix"/>
<feColorMatrix in="SourceAlpha" type="matrix" values="0 0 0 0 0 0 0 0 0 0 0 0 0 0 0 0 0 0 127 0" result="hardAlpha"/>
<feOffset dy="4"/>
<feGaussianBlur stdDeviation="2"/>
<feComposite in2="hardAlpha" operator="out"/>
<feColorMatrix type="matrix" values="0 0 0 0 0 0 0 0 0 0 0 0 0 0 0 0 0 0 0.25 0"/>
<feBlend mode="normal" in2="BackgroundImageFix" result="effect1_dropShadow_0_1"/>
<feBlend mode="normal" in="SourceGraphic" in2="effect1_dropShadow_0_1" result="shape"/>
</filter>
<filter id="filter8_d_0_1" x="261" y="1057" width="772" height="132" filterUnits="userSpaceOnUse" color-interpolation-filters="sRGB">
<feFlood flood-opacity="0" result="BackgroundImageFix"/>
<feColorMatrix in="SourceAlpha" type="matrix" values="0 0 0 0 0 0 0 0 0 0 0 0 0 0 0 0 0 0 127 0" result="hardAlpha"/>
<feOffset dy="4"/>
<feGaussianBlur stdDeviation="2"/>
<feComposite in2="hardAlpha" operator="out"/>
<feColorMatrix type="matrix" values="0 0 0 0 0 0 0 0 0 0 0 0 0 0 0 0 0 0 0.25 0"/>
<feBlend mode="normal" in2="BackgroundImageFix" result="effect1_dropShadow_0_1"/>
<feBlend mode="normal" in="SourceGraphic" in2="effect1_dropShadow_0_1" result="shape"/>
</filter>
</defs>
</svg>
