<svg width="896" height="1273" viewBox="0 0 896 1273" fill="none" xmlns="http://www.w3.org/2000/svg">
<path d="M894 32V1267.14C894 1271.87 887.308 1272.81 885.998 1268.27C885.914 1267.99 885.8 1267.71 885.656 1267.44L865.536 1230.72C864.647 1229.1 863.609 1227.56 862.435 1226.13L843.88 1203.48L820.175 1173.98L793.76 1147.83L764.636 1124.36L738.899 1106.26L709.775 1090.17L677.265 1072.73L646.787 1057.98L614.276 1047.26L587.862 1039.21L558.061 1031.84L526.228 1026.47L492.363 1020.44L463.239 1016.42H346.744H325.748L293.915 1020.44L262.082 1026.47L221.444 1035.86L186.225 1045.25L157.101 1055.97L110.368 1072.73L69.7297 1092.85L41.2832 1106.93L22.9962 1116.31L2 1127.04L2.6773 5.35233V5.24698C2.6773 4.9151 2.7134 4.58697 2.78343 4.26783C2.90704 3.70451 3.13634 3.16921 3.45928 2.69077C3.35757 2.37197 3.58478 2 3.96608 2H4.03189H864C880.569 2 894 15.4315 894 32Z" fill="black"/>
<path d="M4.03189 2H3.96608C3.49259 2 3.25671 2.57357 3.59321 2.90668V2.90668C3.82394 3.13508 3.79695 3.51536 3.53628 3.70889L2.77423 4.27467C2.70974 4.32255 2.64109 4.36455 2.5691 4.40018L2 4.68187M4.03189 2H864C880.569 2 894 15.4315 894 32V1267.14C894 1271.87 887.308 1272.81 885.998 1268.27V1268.27C885.914 1267.99 885.8 1267.71 885.656 1267.44L865.536 1230.72C864.647 1229.1 863.609 1227.56 862.435 1226.13L843.88 1203.48L820.175 1173.98L793.76 1147.83L764.636 1124.36L738.899 1106.26L709.775 1090.17L677.265 1072.73L646.787 1057.98L614.276 1047.26L587.862 1039.21L558.061 1031.84L526.228 1026.47L492.363 1020.44L463.239 1016.42H346.744H325.748L293.915 1020.44L262.082 1026.47L221.444 1035.86L186.225 1045.25L157.101 1055.97L110.368 1072.73L69.7297 1092.85L41.2832 1106.93L22.9962 1116.31L2 1127.04L2.6773 5.35233V5.24698C2.6773 4.02723 3.16503 2.85811 4.03189 2V2Z" stroke="black" stroke-width="3"/>
<rect x="854" y="1" width="40" height="29" fill="black"/>
<path d="M90.0341 295.384L102.278 284.817C102.402 284.71 102.533 284.613 102.671 284.525L103.61 283.928C104.141 283.59 104.819 283.59 105.35 283.928C106.013 284.35 106.279 285.186 105.981 285.913L100.448 299.399L90.368 326.321L86.255 335.039C84.9723 337.758 84.1056 340.655 83.6838 343.631L80.96 362.858V382.124C80.96 385.494 81.5278 388.84 82.6395 392.021L86.5232 403.135C86.8456 404.057 87.2611 404.945 87.7633 405.783C89.0305 407.898 90.82 409.652 92.9601 410.877L94.307 411.648C95.7045 412.448 97.218 413.025 98.7931 413.359L100.912 413.808C101.932 414.024 102.989 413.994 103.995 413.72C105.992 413.176 107.614 411.72 108.371 409.794L108.929 408.375C109.099 407.944 109.299 407.525 109.53 407.123L115.916 395.955C116.802 394.405 117.825 392.937 118.973 391.569L125.312 384.01L133.372 373.156C135.595 370.163 137.241 366.781 138.224 363.185L139.705 357.769C140.411 355.191 140.768 352.529 140.768 349.855V335.295V307.262C140.768 305.019 140.516 302.783 140.018 300.595L134.645 277.019C134.248 275.277 133.696 273.574 132.996 271.93L126.59 256.891C125.741 254.895 125.11 252.814 124.709 250.683L121.125 231.64C120.781 229.811 120.608 227.954 120.608 226.092V202.16C120.608 199.903 120.863 197.653 121.367 195.454L125.312 178.252L131.728 159.893C132.377 158.035 133.207 156.246 134.207 154.55L143.069 139.522C144.219 137.572 145.587 135.758 147.145 134.116L155.592 125.21C156.906 123.824 158.35 122.567 159.903 121.456L173.696 111.589L190.906 101.4C192.422 100.502 194.013 99.7401 195.663 99.122L212 93L199.232 109.666L181.76 136.587L172.231 154.766C171.417 156.318 170.741 157.939 170.21 159.61L165.696 173.819C164.763 176.757 164.288 179.821 164.288 182.903V196.931C164.288 199.847 164.713 202.746 165.55 205.539L170.062 220.606C170.691 222.704 171.547 224.727 172.616 226.638L181.76 242.992L192.047 258.692C194.13 261.871 195.59 265.417 196.349 269.141L199.299 283.614C199.701 285.586 199.904 287.594 199.904 289.606V314.783L195.639 346.749C195.347 348.935 194.816 351.079 194.055 353.148C190.956 361.565 186.266 374.321 185.792 375.678C185.49 376.543 183.189 378.395 180.636 380.23C177.025 382.826 173.812 385.963 171.444 389.728L168.992 393.625L161.494 407.93C159.794 411.172 157.392 413.995 154.462 416.19L153.515 416.9C150.882 418.873 147.801 420.163 144.547 420.653C139.53 421.408 134.414 420.218 130.245 417.326L129.344 416.701L122.89 413.007C122.713 412.906 122.528 412.821 122.336 412.752C119.958 411.901 117.498 413.799 117.718 416.315L118.592 426.316V431.444C118.592 436.565 115.742 441.259 111.2 443.623L108.544 444.89C104.419 446.857 101.792 451.02 101.792 455.59C101.792 456.158 101.833 456.725 101.914 457.286L104.065 472.163C104.341 474.071 104.8 475.947 105.436 477.767L111.2 494.261L128 527.593L142.112 553.873L156.224 584L134.72 569.257L117.92 555.796L101.792 540.413L83.8595 520.948C82.824 519.824 81.8759 518.623 81.0235 517.354L67.097 496.632C66.0374 495.055 65.1299 493.381 64.3869 491.633L55.424 470.544L48.6653 447.687C48.2437 446.262 47.9287 444.806 47.7228 443.334L44.4177 419.689C44.1399 417.702 44.0622 415.692 44.1857 413.69L45.8435 386.807C45.9583 384.947 46.2461 383.101 46.7034 381.294L50.72 365.422L57.7791 342.416C58.4469 340.24 59.3601 338.147 60.5013 336.177L71.4946 317.202C72.4268 315.593 73.5067 314.074 74.7202 312.665L86.9021 298.519C87.8674 297.398 88.9142 296.35 90.0341 295.384Z" fill="#9C8A7A"/>
<path d="M180.569 792.988L166.124 755.597L160.082 742.854L155.384 728.771L152.027 715.358L149.342 696.58L148 674.449V617.444L150.685 597.995L156.726 576.535L165.452 551.05L175.521 525.566L184.247 505.446L197.672 481.974L211.097 461.184L231.906 426.981L243.988 406.191L260.098 376.012L268.153 362.599L281.193 340.45C281.449 340.015 281.672 339.562 281.86 339.093L292.318 312.971L296.646 304.323C296.893 303.83 297.098 303.318 297.26 302.791L299.355 295.989C299.585 295.243 299.702 294.465 299.702 293.684C299.702 291.076 298.397 288.63 296.226 287.184C295.859 286.939 295.471 286.726 295.068 286.547L289.633 284.134L278.222 279.439L266.227 275.024C265.722 274.838 265.233 274.612 264.764 274.347L250.029 266.026L240.578 259.101C240.167 258.8 239.78 258.469 239.42 258.109L232.687 251.382C231.729 250.425 230.975 249.282 230.471 248.025L226.581 238.307C226.108 237.125 225.865 235.864 225.865 234.59V217.39C225.865 216.731 225.93 216.073 226.059 215.427L228.216 204.651C228.437 203.549 228.842 202.491 229.414 201.524L236.84 188.969C237.13 188.478 237.461 188.013 237.831 187.579L247.886 175.76C248.418 175.135 249.025 174.577 249.693 174.1L262.783 164.759L276.778 156.497C277.292 156.193 277.832 155.936 278.392 155.729L294.901 149.62C295.415 149.43 295.945 149.282 296.484 149.178L312.192 146.161C312.814 146.041 313.445 145.981 314.079 145.981H344.25C344.979 145.981 345.705 145.901 346.417 145.743L356.452 143.515C357.102 143.371 357.735 143.162 358.343 142.892L368.629 138.325C369.216 138.064 369.776 137.748 370.302 137.38L382.936 128.544L395.69 118.484L409.786 107.754L419.184 98.3652L422.179 95.3721C423.699 93.8532 425.761 93 427.91 93C430.059 93 432.12 93.8532 433.64 95.3722L433.677 95.4087C434.303 96.0343 434.824 96.7568 435.22 97.5483L435.579 98.2643C436.274 99.6537 436.636 101.186 436.636 102.74V104.176C436.636 105.649 436.31 107.104 435.683 108.437L431.266 117.814L424.553 131.227L413.768 148.975C413.352 149.659 412.856 150.291 412.29 150.856L401.931 161.206C401.352 161.784 400.705 162.289 400.004 162.709L390.991 168.112L374.859 180.362C374.427 180.69 374.023 181.052 373.65 181.445L362.128 193.597L359.36 196.757C358.115 198.178 357.429 200.003 357.429 201.893C357.429 202.618 357.53 203.339 357.729 204.036L358.361 206.246C358.633 207.197 359.045 208.102 359.582 208.932L365.579 218.192C365.962 218.783 366.406 219.332 366.905 219.83L371.525 224.446L377.584 232.316C378.018 232.88 378.391 233.489 378.696 234.133L383.753 244.799C384.099 245.529 384.279 246.326 384.279 247.133V252.406C384.279 254.502 381.943 255.752 380.199 254.59C379.083 253.847 377.587 254.064 376.728 255.094L374.881 257.308L366.155 269.379L355.812 288.755C355.548 289.25 355.326 289.766 355.148 290.299L350.045 305.594L345.564 323.504C345.419 324.082 345.326 324.671 345.287 325.266L344.004 344.492V369.976L341.319 400.155V416.251V473.885C341.319 474.359 341.353 474.832 341.42 475.301L343.333 488.68L346.689 513.494L348.031 600.678V622.138L350.632 644.226C350.688 644.702 350.778 645.173 350.902 645.635L356.086 665.06L359.14 675.433C359.341 676.116 359.615 676.776 359.956 677.401L367.498 691.215L376.224 705.298L386.964 719.382L401.189 734.24C401.55 734.617 401.94 734.966 402.355 735.282L415.827 745.537L431.266 755.597L444.691 762.303L463.486 770.351L474.771 773.911C475.744 774.218 476.759 774.375 477.78 774.375H499.733H531.953L549.93 772.45C550.474 772.392 551.013 772.289 551.54 772.143L562.83 769.01L576.926 764.986L597.064 756.267L614.475 749.18C614.949 748.987 615.408 748.758 615.847 748.495L631.969 738.831L647.407 728.771L666.202 715.358L682.312 703.286L698.422 689.203L716.546 673.107L731.313 657.012L746.08 638.905L762.19 616.773L774.273 595.983L781.898 579.476C782.184 578.858 782.406 578.212 782.56 577.549L789.04 549.709L791.577 535.135C791.676 534.569 791.725 533.995 791.725 533.42V497.242C791.725 496.455 791.632 495.671 791.449 494.906L787.905 480.154C787.767 479.58 787.579 479.019 787.342 478.478L782.999 468.561L776.286 455.819L793.739 467.22L808.053 486.071C808.355 486.469 808.626 486.888 808.866 487.326L819.934 507.601C820.369 508.396 820.693 509.247 820.898 510.13L829.315 546.356L832 574.523V615.607C832 616.382 831.91 617.154 831.731 617.909L823.491 652.742C823.346 653.352 823.145 653.947 822.889 654.519L806.493 691.215L772.259 748.89L742.053 784.434L696.26 830.186C695.912 830.534 695.538 830.856 695.143 831.149L639.355 872.461C638.906 872.793 638.431 873.086 637.934 873.339L561.48 912.19C561.038 912.415 560.58 912.606 560.11 912.763L515.393 927.655C514.799 927.853 514.188 927.994 513.568 928.078L454.76 936H401.099C400.626 936 400.154 935.966 399.686 935.9L367.498 931.305L336.036 922.792C335.531 922.656 335.038 922.48 334.561 922.266L296.345 905.15L257.413 881.678L235.253 864.096C234.812 863.746 234.402 863.36 234.026 862.941L200.303 825.36C199.892 824.903 199.525 824.409 199.206 823.884L181.357 794.588C181.047 794.079 180.783 793.544 180.569 792.988Z" fill="#9C8A7A"/>
<ellipse cx="315" cy="190.5" rx="19" ry="18.5" fill="black"/>
<path d="M441.117 362.848L451.4 349.493L456.314 343.59C457.3 342.405 458.44 341.356 459.702 340.471L460.578 339.857C462.935 338.205 465.744 337.319 468.623 337.319C469.512 337.319 470.4 337.404 471.273 337.572L484.022 340.026C485.737 340.357 487.479 340.523 489.225 340.523H491.434C496.965 340.523 502.292 338.429 506.343 334.663C508.102 333.028 509.581 331.114 510.718 328.998L514.035 322.831C516.641 317.987 518.613 312.827 519.902 307.479L520.293 305.858C521.719 299.942 522.44 293.878 522.44 287.793V283.391C522.44 274.945 521.502 266.525 519.644 258.285L517.96 250.82L510.92 229.035L505.16 202.765L504.27 192.077C503.585 183.839 503.585 175.558 504.27 167.32L504.358 166.261C504.892 159.85 505.885 153.485 507.33 147.216L508.091 143.916C509.97 135.763 512.809 127.861 516.547 120.376C520.461 112.54 525.331 105.22 531.046 98.5826L532.138 97.3142C536.333 92.4431 540.913 87.9187 545.836 83.7851L558.28 73.3365L574.92 61.1626L591.56 50.9108L618.44 38.0962L640.84 30.4073L664.52 26.5629L688.84 24L664.52 38.0962L656.394 43.8126C646.044 51.0941 636.343 59.2572 627.4 68.2107L622.549 74.1234C616.058 82.0337 611.495 91.3437 609.217 101.319C608.116 106.142 607.56 111.074 607.56 116.021V122.034C607.56 133.506 609.213 144.919 612.469 155.919L612.68 156.632C616.513 169.423 621.44 181.86 627.406 193.806L631.88 202.765L649.942 230.664C652.829 235.124 655.352 239.809 657.485 244.674C662.969 257.179 665.8 270.684 665.8 284.338V296.735C665.8 306.219 664.311 315.644 661.389 324.666C659.217 331.37 656.271 337.798 652.61 343.819L640.2 364.23L620.36 394.985L612.012 407.843C606.496 416.338 601.792 425.334 597.96 434.711L596.389 438.38C594.892 441.877 594.12 445.643 594.12 449.448C594.12 453.252 594.892 457.018 596.389 460.515L597.96 464.184L598.564 465.272C600.166 468.16 603.208 469.951 606.511 469.951C607.627 469.951 608.734 469.745 609.777 469.344L611.782 468.572C614.894 467.373 617.67 465.439 619.872 462.934L630.6 450.729L642.76 437.914L658.12 416.77L664.957 406.883C668.073 402.378 671.587 398.161 675.459 394.285C679.252 390.488 682.703 386.363 685.772 381.959L690.78 374.774C697.154 365.626 702.713 355.937 707.393 345.817L709.949 340.289C714.21 331.075 717.447 321.421 719.601 311.501C721.701 301.83 722.76 291.962 722.76 282.065V271.772C722.76 259.531 721.802 247.31 719.895 235.219L718.92 229.035L711.88 206.609L701.64 179.698L734.28 206.609L749 226.472L756.916 241.149C763.145 252.696 768.261 264.809 772.197 277.324L772.989 279.845C775.765 288.673 777.832 297.709 779.171 306.865C780.389 315.197 781 323.605 781 332.025V335.847C781 352.582 779.146 369.265 775.471 385.591L770.76 406.518L764.87 427.745C762.413 436.601 758.53 444.998 753.374 452.606C750.464 456.898 747.955 461.45 745.878 466.202L731.08 500.066L701 561.576L667.08 621.805L637.64 664.734L593.48 714.071L564.68 739.059L526.92 757L548.68 728.167L572.36 697.412L578.608 687.091C582.966 679.892 586.634 672.296 589.561 664.405C592.169 657.375 594.195 650.059 595.587 642.691C597.154 634.398 597.96 625.887 597.96 617.447V574.067C597.96 569.609 597.301 565.175 596.004 560.909C594.337 555.423 591.642 550.305 588.062 545.826L583.24 539.791L573.725 527.486C569.834 522.455 566.33 517.136 563.244 511.574C559.94 505.62 557.097 499.329 554.799 492.919C551.19 482.855 548.808 472.256 547.795 461.612L546.76 450.729V425.136C546.76 424.686 546.812 424.238 546.916 423.8C548.322 417.855 540.769 414.054 536.832 418.725L535.553 420.243C535.345 420.49 535.156 420.753 534.988 421.03L515.4 453.292L506.315 471.483C500.925 482.274 498.12 494.171 498.12 506.232C498.12 510.656 498.497 515.072 499.248 519.432L501.32 531.461L503.233 564.975C503.662 572.501 503.099 580.051 501.556 587.429C499.287 598.283 494.936 608.595 488.744 617.793L484.833 623.604C480.474 630.078 475.503 636.118 469.987 641.641L454.517 657.129C452.444 659.204 450.177 661.077 447.747 662.72L431.446 673.747C429.114 675.325 426.153 675.654 423.531 674.626C418.247 672.557 416.405 666.01 419.835 661.489L439.24 635.901L446.456 625.788C452.233 617.691 456.047 608.361 457.596 598.535C458.58 592.298 458.637 585.949 457.765 579.695L456.933 573.723C455.808 565.653 453.745 557.741 450.786 550.149L445 535.306L434.377 513.642C429.948 504.608 426.321 495.203 423.538 485.535L422.992 483.636C418.911 469.457 416.84 454.775 416.84 440.021V434.173C416.84 423.055 418.426 411.994 421.55 401.324C425.628 387.395 432.263 374.348 441.117 362.848Z" fill="#9C8A7A" stroke="black"/>
</svg>
