<svg width="896" height="1273" viewBox="0 0 896 1273" fill="none" xmlns="http://www.w3.org/2000/svg">
<path d="M2 32V1267.14C2 1271.87 8.69183 1272.81 10.0024 1268.27C10.0856 1267.99 10.2003 1267.71 10.3444 1267.44L30.4636 1230.72C31.3533 1229.1 32.3915 1227.56 33.5648 1226.13L52.1199 1203.48L75.8253 1173.98L102.24 1147.83L131.364 1124.36L157.101 1106.26L186.225 1090.17L218.735 1072.73L249.213 1057.98L281.724 1047.26L308.138 1039.21L337.939 1031.84L369.772 1026.47L403.637 1020.44L432.761 1016.42H549.256H570.252L602.085 1020.44L633.918 1026.47L674.556 1035.86L709.775 1045.25L738.899 1055.97L785.632 1072.73L826.27 1092.85L854.717 1106.93L873.004 1116.31L894 1127.04L893.323 5.35233V5.24698C893.323 4.9151 893.287 4.58697 893.217 4.26783C893.093 3.70451 892.864 3.16921 892.541 2.69077C892.642 2.37197 892.415 2 892.034 2H891.968H31.9999C15.4314 2 2 15.4315 2 32Z" fill="black"/>
<path d="M891.968 2H892.034C892.507 2 892.743 2.57357 892.407 2.90668V2.90668C892.176 3.13508 892.203 3.51536 892.464 3.70889L893.226 4.27467C893.29 4.32255 893.359 4.36455 893.431 4.40018L894 4.68187M891.968 2H32C15.4314 2 1.99998 15.4315 1.99998 32V1267.14C1.99998 1271.87 8.69184 1272.81 10.0025 1268.27V1268.27C10.0856 1267.99 10.2003 1267.71 10.3444 1267.44L30.4636 1230.72C31.3533 1229.1 32.3915 1227.56 33.5648 1226.13L52.12 1203.48L75.8253 1173.98L102.24 1147.83L131.364 1124.36L157.101 1106.26L186.225 1090.17L218.735 1072.73L249.213 1057.98L281.724 1047.26L308.138 1039.21L337.939 1031.84L369.772 1026.47L403.637 1020.44L432.761 1016.42H549.256H570.252L602.085 1020.44L633.918 1026.47L674.556 1035.86L709.775 1045.25L738.899 1055.97L785.632 1072.73L826.27 1092.85L854.717 1106.93L873.004 1116.31L894 1127.04L893.323 5.35233V5.24698C893.323 4.02723 892.835 2.85811 891.968 2V2Z" stroke="black" stroke-width="3"/>
<path d="M75.9999 119V1082.25C75.9999 1086.2 81.5586 1087.04 82.7249 1083.27C82.8032 1083.02 82.9106 1082.77 83.045 1082.55L99.6461 1054.29C100.607 1052.65 101.72 1051.11 102.972 1049.69L118.197 1032.35L138.156 1009.19L160.395 988.66L184.915 970.235L206.584 956.022L231.104 943.388L258.475 929.701L284.136 918.119L311.507 909.696L333.746 903.379L358.837 897.589L385.638 893.377L414.15 888.639L438.67 885.481H536.75H554.427L581.229 888.639L608.03 893.377L642.244 900.747L671.896 908.117L696.416 916.54L735.762 929.701L769.976 945.493L793.926 956.548L809.323 963.918L827 972.341L826.43 91.6321V91.605C826.43 91.3226 826.396 91.0439 826.331 90.7741C826.225 90.3335 826.035 89.9168 825.771 89.5472C825.862 89.2996 825.688 89 825.387 89H825.289H106C89.4314 89 75.9999 102.431 75.9999 119Z" fill="#9C8A7A"/>
<path d="M825.289 89H825.387C825.758 89 825.936 89.4557 825.663 89.7076V89.7076C825.471 89.8847 825.493 90.194 825.708 90.3426L826.356 90.7911C826.405 90.8253 826.457 90.8551 826.512 90.8803L827 91.1057M825.289 89H106C89.4314 89 76 102.431 76 119V1082.25C76 1086.2 81.5586 1087.04 82.7248 1083.27V1083.27C82.8032 1083.02 82.9107 1082.77 83.045 1082.55L99.6461 1054.29C100.607 1052.65 101.72 1051.11 102.972 1049.69L118.197 1032.35L138.156 1009.19L160.395 988.66L184.915 970.235L206.584 956.022L231.104 943.388L258.475 929.701L284.136 918.119L311.507 909.696L333.746 903.379L358.837 897.589L385.638 893.377L414.15 888.639L438.67 885.481H536.75H554.427L581.229 888.639L608.03 893.377L642.244 900.747L671.896 908.117L696.416 916.54L735.762 929.701L769.976 945.493L793.926 956.548L809.323 963.918L827 972.341L826.43 91.6321V91.605C826.43 90.6156 826.016 89.6711 825.289 89V89Z" stroke="black" stroke-width="3"/>
</svg>
