<svg width="241" height="670" viewBox="0 0 241 670" fill="none" xmlns="http://www.w3.org/2000/svg">
<path d="M49.4517 375.558L54.2127 328.742C54.7344 323.611 56.0466 318.593 58.1027 313.864L69.5652 287.5C70.6926 285.461 73.0952 284.491 75.3223 285.176L93.4385 290.75C96.131 291.579 98.9323 292 101.749 292H131.5H182.5L193.838 360.972C194.279 363.653 194.5 366.365 194.5 369.082V419.423C194.5 422.468 194.222 425.506 193.669 428.501L183.691 482.55C182.9 486.831 181.554 490.992 179.686 494.925L157.623 541.372C155.225 546.421 151.996 551.033 148.072 555.015L120 583.5L90.4536 546.681C88.4889 544.232 86.7591 541.604 85.2872 538.832L68.8947 507.953C66.9722 504.331 65.5024 500.487 64.5185 496.507L55.9955 462.027C55.333 459.347 54.8936 456.617 54.6818 453.864L49.3424 384.452C49.1146 381.49 49.1512 378.513 49.4517 375.558Z" fill="black"/>
<path d="M70 286.5L69.5652 287.5M69.5652 287.5L58.1027 313.864C56.0466 318.593 54.7344 323.611 54.2127 328.742L49.4517 375.558C49.1512 378.513 49.1146 381.49 49.3424 384.452L54.6818 453.864C54.8936 456.617 55.333 459.347 55.9955 462.027L64.5185 496.507C65.5024 500.487 66.9722 504.331 68.8947 507.953L85.2872 538.832C86.7591 541.604 88.4889 544.232 90.4536 546.681L120 583.5L148.072 555.015C151.996 551.033 155.225 546.421 157.623 541.372L179.686 494.925C181.554 490.992 182.9 486.832 183.691 482.55L193.669 428.501C194.222 425.506 194.5 422.468 194.5 419.423V369.082C194.5 366.365 194.279 363.653 193.838 360.972L182.5 292H131.5H101.749C98.9323 292 96.131 291.579 93.4385 290.75L75.3223 285.176C73.0952 284.491 70.6926 285.461 69.5652 287.5V287.5Z" stroke="black"/>
<path d="M65.5 297L73.6079 312.863C75.8569 317.263 78.7457 321.306 82.1802 324.859L91.5 334.5M91.5 334.5L112 309M91.5 334.5L90 343M112 309V294M112 309L125 319.5L129.158 322.668C132.728 325.388 137.795 324.877 140.75 321.5V321.5M154.5 294L148.931 308.086C146.991 312.992 144.224 317.529 140.75 321.5V321.5M140.75 321.5V321.5C140.75 327.225 143.198 332.676 147.477 336.479L152 340.5L159 345.5M140.75 321.5L137.54 325.304C135.191 328.088 133.236 331.182 131.728 334.497L131.043 336.006C129.69 338.982 127.857 341.715 125.617 344.095V344.095C122.577 347.324 118.855 349.834 114.722 351.441L112 352.5M159 345.5L164.001 341.699C168.957 337.933 173.166 333.274 176.411 327.963L182.5 318M159 345.5L163.308 348.851C166.395 351.252 169.991 352.912 173.821 353.704L175.931 354.141C180.186 355.021 184.614 354.443 188.5 352.5V352.5M159 345.5L156.862 348.096C153.67 351.972 151.485 356.576 150.5 361.5V361.5L150.069 363.765C149.048 369.124 146.396 374.036 142.476 377.83V377.83C141.328 378.941 140.081 379.946 138.752 380.832L131 386M131 386L128.558 384.412C123.572 381.172 119.299 376.948 116 372V372L112 364M131 386L132.5 392M112 364V352.5M112 364L107.112 371.333C105.706 373.441 104.142 375.44 102.433 377.311L99.6351 380.376C96.2508 384.082 92.1134 387.023 87.5 389V389M112 352.5V352.5C109.133 353.456 105.996 353.164 103.354 351.696L98.5 349L90 343M90 343L77 352.5M77 352.5L59.5 347.5M77 352.5V352.5C73.058 356.442 68.2246 359.376 62.9086 361.055L61.5 361.5M61.5 361.5L56.5 358.5M61.5 361.5L67.5 370L72.8352 376.458C75.6 379.805 78.7888 382.778 82.3213 385.301L87.5 389M87.5 389L90 398M90 398L100 409L110.5 420M90 398L83.0502 406.994C82.0202 408.327 80.8397 409.536 79.5323 410.599V410.599C75.6301 413.769 70.7554 415.5 65.7275 415.5H65.5M110.5 420L120.158 409.57C122.049 407.527 123.767 405.329 125.293 403.001L132.5 392M110.5 420L105.372 431.835C104.462 433.934 103.26 435.895 101.803 437.66L98.9582 441.103C96.1348 444.521 91.9331 446.5 87.5 446.5V446.5M110.5 420L116 428.5L120.97 436.394C123.313 440.115 126.137 443.511 129.368 446.493L131 448M132.5 392L142 401L147.308 407.104C149.957 410.151 154.503 410.65 157.75 408.25V408.25M163.5 404L171.161 395.245C173.05 393.086 174.75 390.768 176.242 388.317L188 369L163.5 404ZM163.5 404L157.75 408.25M65.5 415.5L55 406.5M65.5 415.5L75.3698 432.315C77.7776 436.417 80.7585 440.155 84.2223 443.415L87.5 446.5M87.5 446.5L90 456M131 448L136.852 442.946C140.268 439.996 143.269 436.596 145.773 432.84L152.921 422.119M131 448L136.362 454.599C139.273 458.182 142.667 461.345 146.446 463.997L155 470M131 448L110.5 473.5M155 415.5L153.042 421.864C153.014 421.954 152.973 422.04 152.921 422.119V422.119M155 415.5L157.75 408.25M155 415.5L158.112 420.309C159.701 422.765 161.502 425.077 163.496 427.218L174 438.5M155 415.5L152.921 422.119M174 438.5L184 449.5M174 438.5L177.993 437.102C181.947 435.719 185.538 433.462 188.5 430.5V430.5M155 470L161.078 474.442C165.659 477.789 170.777 480.333 176.212 481.963L178 482.5M155 470L149.986 476.171C144.745 482.622 137.978 487.664 130.298 490.842L127.5 492M110.5 473.5L90 456M110.5 473.5L98.5 492M110.5 473.5V473.5C110.5 477.326 112.093 480.979 114.897 483.583L116.148 484.745C117.047 485.579 118.03 486.318 119.082 486.949L127.5 492M90 456L80 466L72 473M72 473L57.5 465M72 473L71 477.5M71 477.5L59.5 482.5M71 477.5L85 486L98.5 492M98.5 492L96.3521 497.638C95.1207 500.871 93.5572 503.967 91.6866 506.876L90 509.5M127.5 492V504.5M90 509.5L77 515.5M90 509.5L96.5 515.5L109 525.5M109 525.5L117.483 518.658C122.071 514.959 125.539 510.057 127.5 504.5V504.5M109 525.5L110.5 529M127.5 504.5L135 517L137.801 523.576C139.743 528.135 142.671 532.208 146.375 535.5V535.5M152 540.5L146.375 535.5M146.375 535.5L135 537L130.084 537.517C127.048 537.837 123.98 537.662 121 537V537M121 537L110.5 529M121 537L124.5 552M110.5 529V529C106.888 533.268 102.286 536.586 97.0943 538.662L92.5 540.5M124.5 552L135 563M124.5 552L114 561" stroke="white" stroke-width="2"/>
<path d="M100.006 567.674L110.28 578.267C111.7 579.731 112.548 581.657 112.667 583.694C112.719 584.572 112.634 585.452 112.416 586.304L106.815 608.188C104.112 615.216 98.7632 620.906 91.9154 624.039L77.3208 630.715L37.8733 647.846L21.3572 655.537C18.6844 656.782 16.1269 658.261 13.7146 659.956L0.999996 668.893L10.1962 651.072L24.3231 626.624C25.5149 624.562 26.8526 622.587 28.3259 620.715L39.023 607.125C40.9138 604.723 43.0208 602.5 45.3177 600.482L52.4487 594.219C55.5621 591.485 59.0034 589.148 62.6933 587.263L78.2914 579.293L100.006 567.674Z" fill="black"/>
<path d="M100.006 567.674L110.28 578.267C111.7 579.731 112.548 581.657 112.667 583.694C112.719 584.572 112.634 585.452 112.416 586.304L106.815 608.188C104.112 615.216 98.7632 620.906 91.9154 624.039L77.3208 630.715L37.8733 647.846L21.3572 655.537C18.6844 656.782 16.1269 658.261 13.7146 659.956L0.999996 668.893L10.1962 651.072L24.3231 626.624C25.5149 624.562 26.8526 622.587 28.3259 620.715L39.023 607.125C40.9138 604.723 43.0208 602.5 45.3177 600.482L52.4487 594.219C55.5621 591.485 59.0034 589.148 62.6933 587.263L78.2914 579.293L100.006 567.674Z" fill="black"/>
<path d="M100.006 567.674L110.28 578.267C111.7 579.731 112.548 581.657 112.667 583.694C112.719 584.572 112.634 585.452 112.416 586.304L106.815 608.188C104.112 615.216 98.7632 620.906 91.9154 624.039L77.3208 630.715L37.8733 647.846L21.3572 655.537C18.6844 656.782 16.1269 658.261 13.7146 659.956L0.999996 668.893L10.1962 651.072L24.3231 626.624C25.5149 624.562 26.8526 622.587 28.3259 620.715L39.023 607.125C40.9138 604.723 43.0208 602.5 45.3177 600.482L52.4487 594.219C55.5621 591.485 59.0034 589.148 62.6933 587.263L78.2914 579.293L100.006 567.674Z" fill="black"/>
<path d="M100.006 567.674L110.28 578.267C111.7 579.731 112.548 581.657 112.667 583.694C112.719 584.572 112.634 585.452 112.416 586.304L106.815 608.188C104.112 615.216 98.7632 620.906 91.9154 624.039L77.3208 630.715L37.8733 647.846L21.3572 655.537C18.6844 656.782 16.1269 658.261 13.7146 659.956L0.999996 668.893L10.1962 651.072L24.3231 626.624C25.5149 624.562 26.8526 622.587 28.3259 620.715L39.023 607.125C40.9138 604.723 43.0208 602.5 45.3177 600.482L52.4487 594.219C55.5621 591.485 59.0034 589.148 62.6933 587.263L78.2914 579.293L100.006 567.674Z" stroke="black"/>
<path d="M140.881 567.674L130.607 578.267C129.186 579.731 128.339 581.657 128.219 583.694C128.168 584.572 128.253 585.452 128.471 586.304L134.072 608.188C136.775 615.216 142.123 620.906 148.971 624.039L163.566 630.715L203.013 647.846L219.53 655.537C222.202 656.782 224.76 658.261 227.172 659.956L239.887 668.893L230.69 651.072L216.564 626.624C215.372 624.562 214.034 622.587 212.561 620.715L201.864 607.125C199.973 604.723 197.866 602.5 195.569 600.482L188.438 594.219C185.325 591.485 181.883 589.148 178.193 587.263L162.595 579.293L140.881 567.674Z" fill="black"/>
<path d="M140.881 567.674L130.607 578.267C129.186 579.731 128.339 581.657 128.219 583.694C128.168 584.572 128.253 585.452 128.471 586.304L134.072 608.188C136.775 615.216 142.123 620.906 148.971 624.039L163.566 630.715L203.013 647.846L219.53 655.537C222.202 656.782 224.76 658.261 227.172 659.956L239.887 668.893L230.69 651.072L216.564 626.624C215.372 624.562 214.034 622.587 212.561 620.715L201.864 607.125C199.973 604.723 197.866 602.5 195.569 600.482L188.438 594.219C185.325 591.485 181.883 589.148 178.193 587.263L162.595 579.293L140.881 567.674Z" fill="black"/>
<path d="M140.881 567.674L130.607 578.267C129.186 579.731 128.339 581.657 128.219 583.694C128.168 584.572 128.253 585.452 128.471 586.304L134.072 608.188C136.775 615.216 142.123 620.906 148.971 624.039L163.566 630.715L203.013 647.846L219.53 655.537C222.202 656.782 224.76 658.261 227.172 659.956L239.887 668.893L230.69 651.072L216.564 626.624C215.372 624.562 214.034 622.587 212.561 620.715L201.864 607.125C199.973 604.723 197.866 602.5 195.569 600.482L188.438 594.219C185.325 591.485 181.883 589.148 178.193 587.263L162.595 579.293L140.881 567.674Z" fill="black"/>
<path d="M140.881 567.674L130.607 578.267C129.186 579.731 128.339 581.657 128.219 583.694C128.168 584.572 128.253 585.452 128.471 586.304L134.072 608.188C136.775 615.216 142.123 620.906 148.971 624.039L163.566 630.715L203.013 647.846L219.53 655.537C222.202 656.782 224.76 658.261 227.172 659.956L239.887 668.893L230.69 651.072L216.564 626.624C215.372 624.562 214.034 622.587 212.561 620.715L201.864 607.125C199.973 604.723 197.866 602.5 195.569 600.482L188.438 594.219C185.325 591.485 181.883 589.148 178.193 587.263L162.595 579.293L140.881 567.674Z" stroke="black"/>
<path d="M20.5 343L32.4907 299.999C34.1492 294.051 36.8951 288.462 40.5893 283.514L49 272.25L37.5097 301.591C35.8444 305.844 34.7696 310.304 34.3152 314.848L31.5 343V363.5L35 401V422.789C35 425.796 31.134 427.023 29.3998 424.566C29.1365 424.193 28.9594 423.767 28.8812 423.317L28.1791 419.28C27.4519 415.098 21.5293 414.883 20.5 419L15.2283 435.294C15.077 435.762 14.8538 436.203 14.5667 436.602C11.8839 440.328 6 438.43 6 433.839V419.873C6 419.292 6.05478 418.713 6.1636 418.143L20.5 343Z" fill="black"/>
<path d="M103.5 140V190.5L102.459 203.411C101.517 215.088 96.4513 226.049 88.1679 234.332V234.332C86.3919 236.108 84.4829 237.746 82.4575 239.231L69.0254 249.081C65.0307 252.011 61.4934 255.518 58.5296 259.487L49 272.25M49 272.25L40.5893 283.514C36.8951 288.462 34.1492 294.051 32.4907 299.999L20.5 343L6.1636 418.143C6.05478 418.713 6 419.292 6 419.873V433.839C6 438.43 11.8839 440.328 14.5667 436.602V436.602C14.8538 436.203 15.077 435.762 15.2283 435.294L20.5 419V419C21.5293 414.883 27.4519 415.098 28.1791 419.28L28.8812 423.317C28.9594 423.767 29.1365 424.193 29.3998 424.566V424.566C31.134 427.023 35 425.796 35 422.789V401L31.5 363.5V343L34.3152 314.848C34.7696 310.304 35.8444 305.844 37.5097 301.591L49 272.25Z" stroke="black" stroke-width="3"/>
<path d="M223 343L211.009 299.999C209.351 294.051 206.605 288.462 202.911 283.514L194.5 272.25L205.99 301.591C207.656 305.844 208.73 310.304 209.185 314.848L212 343V363.5L208.5 401V422.789C208.5 425.796 212.366 427.023 214.1 424.566C214.363 424.193 214.541 423.767 214.619 423.317L215.321 419.28C216.048 415.098 221.971 414.883 223 419L228.272 435.294C228.423 435.762 228.646 436.203 228.933 436.602C231.616 440.328 237.5 438.43 237.5 433.839V419.873C237.5 419.292 237.445 418.713 237.336 418.143L223 343Z" fill="black"/>
<path d="M140 140V190.5L141.041 203.411C141.983 215.088 147.049 226.049 155.332 234.332V234.332C157.108 236.108 159.017 237.746 161.043 239.231L174.475 249.081C178.469 252.011 182.007 255.518 184.97 259.487L194.5 272.25M194.5 272.25L202.911 283.514C206.605 288.462 209.351 294.051 211.009 299.999L223 343L237.336 418.143C237.445 418.713 237.5 419.292 237.5 419.873V433.839C237.5 438.43 231.616 440.328 228.933 436.602V436.602C228.646 436.203 228.423 435.762 228.272 435.294L223 419V419C221.971 414.883 216.048 415.098 215.321 419.28L214.619 423.317C214.541 423.767 214.363 424.193 214.1 424.566V424.566C212.366 427.023 208.5 425.796 208.5 422.789V401L212 363.5V343L209.185 314.848C208.73 310.304 207.656 305.844 205.99 301.591L194.5 272.25Z" stroke="black" stroke-width="3"/>
<path d="M156.5 101.5C156.5 126.711 140.512 146.5 121.5 146.5C102.488 146.5 86.5 126.711 86.5 101.5C86.5 76.2886 102.488 56.5 121.5 56.5C140.512 56.5 156.5 76.2886 156.5 101.5Z" stroke="black" stroke-width="3"/>
<ellipse cx="120" cy="124" rx="6" ry="4" fill="black"/>
<ellipse cx="119" cy="109.5" rx="3" ry="4.5" fill="black"/>
<ellipse cx="139.5" cy="94.5" rx="6.5" ry="4.5" fill="black"/>
<ellipse cx="139.5" cy="80.5" rx="6.5" ry="2.5" fill="black"/>
<circle cx="101.5" cy="90.5" r="2.5" fill="black"/>
<ellipse cx="102" cy="78.5" rx="5" ry="2.5" fill="black"/>
<path d="M94.7906 69.9674L97.033 66.9095C99.6401 63.3544 103.057 60.4716 107 58.5L109.198 57.5581C112.366 56.2002 115.778 55.5 119.225 55.5C122.381 55.5 125.509 56.0869 128.451 57.2308L129.322 57.5695C131.764 58.5192 134.073 59.7802 136.192 61.3214L138.472 62.9797C142.136 65.6444 145.373 68.851 148.073 72.4893C152.931 79.038 155.905 86.7917 156.671 94.9099L156.881 97.1399C157.617 104.938 156.51 112.799 153.651 120.09L152.86 122.106C149.676 130.227 148.671 139.04 149.946 147.67L163 236H225.5L220.276 219.283C218.767 214.456 218 209.427 218 204.369V157.5V97.2013C218 91.1182 216.89 85.0861 214.724 79.4015L212.002 72.2557C210.672 68.7629 208.954 65.4303 206.88 62.3204L194.501 43.7513C192.837 41.2555 190.952 38.9145 188.868 36.7566L182.585 30.2487C179.542 27.0966 176.097 24.3582 172.34 22.1038L158.935 14.0613C156.649 12.6893 154.256 11.5024 151.78 10.5121L139.762 5.70491C136.927 4.57069 133.993 3.69864 130.999 3.09971L130.148 2.92951C123.777 1.65539 117.219 1.63502 110.841 2.86955L108.529 3.31687C106.18 3.7717 103.865 4.39469 101.605 5.18103L88.9939 9.56733C84.3566 11.1803 79.9821 13.4675 76.0114 16.3554L66 23.6364C62.0218 26.5296 58.4923 29.9941 55.5256 33.9178L48.4404 43.2885C45.8246 46.7481 43.67 50.5334 42.031 54.549L38.2076 63.9163C35.7592 69.9149 34.5 76.3322 34.5 82.8112V102V157.5V206.719C34.5 210.211 33.8719 213.675 32.6457 216.945C31.8843 218.975 30.8985 220.914 29.7067 222.726L19 239L70.7128 228.113C74.1415 227.391 77.236 225.558 79.5163 222.898C81.1489 220.993 82.3081 218.729 82.8992 216.291L88.5925 192.806C89.5275 188.949 90 184.995 90 181.026V180.414C90 176.156 90.5441 171.914 91.6191 167.793L93.833 159.307C95.2672 153.809 95.7538 148.107 95.272 142.446L94.6463 135.094C94.2219 130.107 92.5851 125.299 89.8785 121.089C86.6934 116.134 85 110.368 85 104.478V100.759C85 96.9364 85.5052 93.1306 86.5026 89.4405L87.8864 84.3203C89.2834 79.1513 91.6242 74.2852 94.7906 69.9674Z" fill="black" stroke="black" stroke-width="3"/>
<path d="M47.8631 87.5204L53.3903 55.6331C53.4625 55.2163 53.6273 54.8211 53.8725 54.4765C55.87 51.6693 60.1995 54.1957 58.7382 57.3157L53.8651 67.7205C53.6246 68.2339 53.5 68.7939 53.5 69.3608V98V154V208.135C53.5 208.377 53.461 208.617 53.3845 208.846C52.5774 211.268 49 210.687 49 208.135V159.5L47.1508 97.5516C47.0505 94.1924 47.2892 90.8317 47.8631 87.5204Z" fill="#F5F8F7"/>
<path d="M78.8877 46.8799L79.1183 46.6322C81.3633 44.2209 83.9117 42.1112 86.6997 40.3558C92.7759 36.53 99.8099 34.5 106.99 34.5H110.5L131.419 36.9325C131.801 36.9768 132.166 37.1125 132.484 37.3279L136.358 39.9519C138.075 41.1153 136.742 43.7762 134.782 43.0976C134.595 43.033 134.399 43 134.202 43H104C95.5057 43 87.5115 47.0158 82.4404 53.8302L80.3614 56.6237C76.5329 61.7683 74.2466 67.8957 73.7693 74.2907L72.5431 90.7229C72.1829 95.5487 72.5253 100.401 73.5594 105.129L77.4211 122.782C78.468 127.568 78.8059 132.482 78.4239 137.366L72.1873 217.105C72.0738 218.557 71.1022 219.799 69.7209 220.26C67.251 221.083 64.7449 219.11 64.9647 216.516L71.5866 138.378C71.8615 135.134 71.8189 131.87 71.4594 128.634L67.4846 92.8615C67.1622 89.9594 67.0945 87.0347 67.2825 84.1208L68.0658 71.9803C68.67 62.6157 72.4932 53.748 78.8877 46.8799Z" fill="#F5F8F7"/>
<path d="M166 163V88.9336C166 84.7526 172.003 84.0832 172.924 88.1616C172.974 88.3866 173.003 88.6162 173.009 88.8468L175.485 188.894C175.495 189.296 175.448 189.697 175.346 190.086C174.096 194.837 167.13 194.064 166.951 189.155L166 163Z" fill="#F5F8F7"/>
<path d="M198.969 224.516L197.553 112.298C197.502 108.305 203.325 107.803 203.959 111.746C203.986 111.915 204 112.086 204 112.258V224.484C204 225.874 202.874 227 201.484 227C200.107 227 198.986 225.893 198.969 224.516Z" fill="#F5F8F7"/>
</svg>
