<svg width="982" height="982" viewBox="0 0 982 982" fill="none" xmlns="http://www.w3.org/2000/svg">
<circle cx="485" cy="492" r="357" fill="#D9D9D9"/>
<circle opacity="0.7" cx="491" cy="491" r="489.5" fill="#9C8A7A" stroke="black" stroke-width="3"/>
<circle cx="490.5" cy="490.5" r="240" fill="black" stroke="black" stroke-width="3"/>
<path d="M584.38 385.413L603 402.472L576.708 392.618C564.26 387.952 551.428 384.384 538.358 381.954L528.436 380.109C521.286 378.779 514.028 378.11 506.755 378.11C495.353 378.11 484.011 379.754 473.078 382.992L471.625 383.422C466.714 384.877 461.913 386.677 457.258 388.809L454.513 390.067C446.056 393.941 438.258 399.113 431.399 405.396C423.368 412.755 416.751 421.522 411.878 431.264L408 439.016L404.603 447.503C400.654 457.371 398.625 467.902 398.625 478.53V480.295C398.625 484.623 399.053 488.941 399.902 493.185C401.536 501.349 404.707 509.129 409.246 516.109L409.888 517.096C412.993 521.871 416.655 526.259 420.797 530.169L424.924 534.064C429.24 538.138 434.166 541.511 439.525 544.062L442.66 545.554C448.233 548.206 454.328 549.583 460.5 549.583C466.672 549.583 472.767 548.206 478.34 545.554L482.435 543.605C487.129 541.371 491.276 538.133 494.582 534.121C499.822 527.761 502.688 519.777 502.688 511.537V510.331C502.688 507.151 502.297 503.983 501.526 500.898L498 486.803H510.879C515.357 486.803 519.773 487.845 523.778 489.847C529.55 492.732 534.189 497.468 536.953 503.3L537.796 505.078C539.988 509.703 541.125 514.758 541.125 519.876V522.26C541.125 530.922 538.634 539.401 533.948 546.686L530.396 552.208C526.327 558.534 521.23 564.135 515.315 568.781L514.006 569.809C503.523 578.041 491.045 583.348 477.844 585.189L474.384 585.672C463.326 587.214 452.092 586.951 441.118 584.895L438.842 584.468C431.438 583.081 424.249 580.723 417.461 577.457C407.498 572.662 398.556 565.985 391.129 557.794L389.639 556.151C380.12 545.653 373.015 533.198 368.823 519.661L367.945 516.825C364.667 506.241 363 495.224 363 484.144V482.646C363 464.417 367.14 446.426 375.108 430.03L378.938 422.15L386.159 409.519C391.318 400.495 397.74 392.254 405.229 385.045C414.503 376.12 425.283 368.904 437.069 363.732L440.122 362.393C451.767 357.283 464.11 353.939 476.742 352.471L482.158 351.841C492.678 350.619 503.31 350.717 513.805 352.135C526.323 353.825 538.519 357.375 549.989 362.666L550.617 362.956C562.964 368.652 574.354 376.227 584.38 385.413Z" fill="#F5F3E4" stroke="black"/>
<path d="M412.938 612.073L399 602.223C414.444 607.144 430.556 609.649 446.765 609.649H449.339H464.244C474.157 609.649 484.033 608.439 493.652 606.044L495.847 605.497C504.579 603.324 512.993 600.029 520.879 595.697C530.914 590.183 539.973 583.056 547.692 574.601L554.678 566.948L557.729 563.505C564.955 555.35 570.609 545.929 574.407 535.717C576.783 529.33 578.412 522.688 579.261 515.926L579.785 511.75C581.057 501.616 580.308 491.331 577.581 481.488L576.673 478.209C575.071 472.426 572.553 466.936 569.214 461.95C563.958 454.099 556.809 447.701 548.426 443.345L546.722 442.46C542.102 440.06 537.192 438.263 532.113 437.113C523.639 435.196 514.852 435.116 506.345 436.881L501.627 437.86C498.47 438.515 495.385 439.472 492.412 440.719L486.514 443.192C481.714 445.204 477.574 448.522 474.564 452.768C470.346 458.718 468.631 466.086 469.788 473.288L470.233 476.053C471.202 482.083 473.745 487.751 477.607 492.484L483.831 500.112H481.98C472.918 500.112 464.124 497.037 457.036 491.39C451.98 487.363 447.974 482.171 445.362 476.258L444.439 474.169C440.944 466.26 439.815 457.509 441.186 448.972C442.257 442.307 444.822 435.97 448.688 430.436L450.566 427.747C455.289 420.987 461.375 415.29 468.432 411.023L470.432 409.814C479.256 404.479 489.147 401.156 499.402 400.081L508.421 399.136C515.621 398.381 522.883 398.425 530.073 399.267C543.834 400.88 557.099 405.387 568.993 412.494L577.909 417.821C584.76 421.915 591 426.954 596.443 432.792L596.997 433.386C607.125 444.247 614.109 457.656 617.203 472.18C618.398 477.79 619 483.509 619 489.244V499.088C619 507.782 617.929 516.444 615.812 524.877C613.596 533.703 610.252 542.207 605.862 550.178L604.077 553.421C599.127 562.41 593.164 570.802 586.306 578.435L578.43 587.201C569.496 597.143 558.939 605.496 547.207 611.902C539.78 615.958 531.938 619.204 523.816 621.582L519.554 622.831C509.436 625.794 499.048 627.745 488.544 628.655L477.661 629.597C466.933 630.526 456.125 629.672 445.675 627.071C433.927 624.146 422.825 619.06 412.938 612.073Z" fill="#F5F3E4" stroke="black"/>
</svg>
